<svg id="svg" version="1.1" xmlns="http://www.w3.org/2000/svg" xmlns:xlink="http://www.w3.org/1999/xlink" width="400" height="400" viewBox="0, 0, 400,400"><g id="svgg"><path id="path0" d="M315.200 75.598 C 311.646 76.475,309.109 77.524,305.818 79.476 C 303.938 80.591,285.376 98.922,222.398 161.855 C 177.846 206.375,141.216 242.800,140.996 242.800 C 140.777 242.800,130.968 233.156,119.199 221.369 C 94.537 196.669,93.530 195.850,85.000 193.558 C 55.692 185.683,32.559 219.192,49.665 244.744 C 52.216 248.555,123.910 319.734,127.000 321.524 C 135.378 326.377,146.571 326.460,154.800 321.731 C 158.703 319.488,347.333 131.059,350.743 125.997 C 367.452 101.192,344.332 68.409,315.200 75.598 " stroke="none" fill="#ac2cb4" fill-rule="evenodd"></path><path id="path1" d="M0.000 200.000 L 0.000 400.000 200.000 400.000 L 400.000 400.000 400.000 200.000 L 400.000 0.000 200.000 0.000 L 0.000 0.000 0.000 200.000 M332.385 75.586 C 354.760 82.060,363.925 109.407,349.882 127.800 C 348.874 129.120,305.153 173.057,252.725 225.438 C 158.051 320.026,157.378 320.688,154.115 322.351 C 144.037 327.487,133.045 326.576,124.197 319.870 C 120.396 316.989,50.780 246.980,49.034 244.282 C 34.029 221.100,50.510 191.628,78.000 192.487 C 90.750 192.886,91.451 193.369,118.804 220.648 L 141.009 242.792 221.204 162.567 C 265.312 118.443,302.480 81.566,303.800 80.618 C 307.947 77.640,312.566 75.699,318.000 74.652 C 320.552 74.161,329.455 74.739,332.385 75.586 " stroke="none" fill="#fcfcfc" fill-rule="evenodd"></path><path id="path2" d="M253.400 224.500 L 159.000 319.000 253.500 224.600 C 305.475 172.680,348.000 130.155,348.000 130.100 C 348.000 129.821,341.168 136.638,253.400 224.500 " stroke="none" fill="#e2b0e3" fill-rule="evenodd"></path><path id="path3" d="M321.700 74.691 C 322.525 74.778,323.875 74.778,324.700 74.691 C 325.525 74.605,324.850 74.534,323.200 74.534 C 321.550 74.534,320.875 74.605,321.700 74.691 M346.600 84.400 C 347.683 85.500,348.660 86.400,348.770 86.400 C 348.880 86.400,348.083 85.500,347.000 84.400 C 345.917 83.300,344.940 82.400,344.830 82.400 C 344.720 82.400,345.517 83.300,346.600 84.400 M221.000 162.900 L 141.000 243.000 221.100 163.000 C 265.155 119.001,301.200 82.956,301.200 82.900 C 301.200 82.621,295.379 88.428,221.000 162.900 M119.200 221.400 C 130.968 233.170,140.687 242.800,140.797 242.800 C 140.907 242.800,131.368 233.170,119.600 221.400 C 107.832 209.630,98.113 200.000,98.003 200.000 C 97.893 200.000,107.432 209.630,119.200 221.400 M139.900 325.489 C 140.615 325.578,141.785 325.578,142.500 325.489 C 143.215 325.401,142.630 325.328,141.200 325.328 C 139.770 325.328,139.185 325.401,139.900 325.489 " stroke="none" fill="#cb79d1" fill-rule="evenodd"></path><path id="path4" d="M356.501 107.800 C 356.505 108.680,356.587 108.993,356.683 108.495 C 356.779 107.998,356.775 107.278,356.675 106.895 C 356.575 106.513,356.496 106.920,356.501 107.800 M52.975 202.100 L 51.800 203.400 53.100 202.225 C 53.815 201.579,54.400 200.994,54.400 200.925 C 54.400 200.616,54.070 200.888,52.975 202.100 M43.293 225.600 C 43.293 226.370,43.375 226.685,43.476 226.300 C 43.576 225.915,43.576 225.285,43.476 224.900 C 43.375 224.515,43.293 224.830,43.293 225.600 M87.000 283.200 C 106.579 302.780,122.688 318.800,122.798 318.800 C 122.908 318.800,106.979 302.780,87.400 283.200 C 67.821 263.620,51.712 247.600,51.602 247.600 C 51.492 247.600,67.421 263.620,87.000 283.200 " stroke="none" fill="#f4d5f4" fill-rule="evenodd"></path></g></svg>