<svg id="svg" version="1.1" xmlns="http://www.w3.org/2000/svg" xmlns:xlink="http://www.w3.org/1999/xlink" width="400" height="400" viewBox="0, 0, 400,400"><g id="svgg"><path id="path0" d="M160.386 75.100 C 160.379 75.265,163.293 110.635,166.863 153.700 L 173.354 232.000 200.077 232.000 L 226.800 232.000 226.800 231.028 C 226.800 230.494,229.770 195.296,233.400 152.812 C 237.030 110.328,240.000 75.395,240.000 75.184 C 240.000 74.726,160.407 74.642,160.386 75.100 M192.608 252.419 C 170.144 255.939,156.593 274.125,160.583 295.400 C 164.478 316.166,186.566 329.272,209.600 324.486 C 246.426 316.833,251.276 267.014,216.402 254.613 C 210.248 252.424,199.124 251.399,192.608 252.419 " stroke="none" fill="#ac2cb4" fill-rule="evenodd"></path><path id="path1" d="M0.000 200.000 L 0.000 400.000 200.000 400.000 L 400.000 400.000 400.000 200.000 L 400.000 0.000 200.000 0.000 L 0.000 0.000 0.000 200.000 M240.268 76.300 C 240.138 77.345,237.141 112.310,233.607 154.000 C 230.073 195.690,227.088 230.385,226.973 231.100 L 226.764 232.400 200.000 232.400 L 173.236 232.400 173.025 231.100 C 172.909 230.385,170.018 195.870,166.601 154.400 C 163.183 112.930,160.277 77.965,160.142 76.700 L 159.897 74.400 200.200 74.400 L 240.503 74.400 240.268 76.300 M206.600 252.043 C 250.766 257.456,251.883 317.682,207.954 325.027 C 178.418 329.966,154.270 306.933,160.539 279.800 C 164.910 260.884,184.147 249.292,206.600 252.043 " stroke="none" fill="#fcfcfc" fill-rule="evenodd"></path><path id="path2" d="M199.107 251.890 C 199.826 251.979,200.906 251.977,201.507 251.886 C 202.108 251.795,201.520 251.722,200.200 251.724 C 198.880 251.726,198.388 251.801,199.107 251.890 M159.731 288.200 C 159.733 289.740,159.805 290.321,159.892 289.491 C 159.979 288.661,159.977 287.401,159.889 286.691 C 159.800 285.981,159.729 286.660,159.731 288.200 M240.131 288.200 C 240.133 289.740,240.205 290.321,240.292 289.491 C 240.379 288.661,240.377 287.401,240.289 286.691 C 240.200 285.981,240.129 286.660,240.131 288.200 " stroke="none" fill="#d79bde" fill-rule="evenodd"></path><path id="path3" d="M180.330 74.700 C 191.402 74.759,209.402 74.759,220.330 74.700 C 231.259 74.641,222.200 74.592,200.200 74.592 C 178.200 74.592,169.259 74.641,180.330 74.700 M169.578 263.500 L 168.200 265.000 169.700 263.622 C 171.096 262.338,171.384 262.000,171.078 262.000 C 171.012 262.000,170.337 262.675,169.578 263.500 M169.200 312.925 C 169.200 312.994,169.785 313.579,170.500 314.225 L 171.800 315.400 170.625 314.100 C 169.530 312.888,169.200 312.616,169.200 312.925 M229.375 314.100 L 228.200 315.400 229.500 314.225 C 230.712 313.130,230.984 312.800,230.675 312.800 C 230.606 312.800,230.021 313.385,229.375 314.100 M198.512 325.495 C 199.564 325.577,201.184 325.576,202.112 325.492 C 203.040 325.408,202.180 325.341,200.200 325.342 C 198.220 325.343,197.460 325.412,198.512 325.495 " stroke="none" fill="#c568c6" fill-rule="evenodd"></path><path id="path4" d="M186.500 232.300 C 193.925 232.361,206.075 232.361,213.500 232.300 C 220.925 232.239,214.850 232.189,200.000 232.189 C 185.150 232.189,179.075 232.239,186.500 232.300 " stroke="none" fill="#ecccec" fill-rule="evenodd"></path></g></svg>