<svg id="svg" version="1.1" xmlns="http://www.w3.org/2000/svg" xmlns:xlink="http://www.w3.org/1999/xlink" width="400" height="400" viewBox="0, 0, 400,400"><g id="svgg"><path id="path0" d="M190.400 75.430 C 171.231 78.906,155.191 92.815,148.994 111.336 C 146.608 118.466,146.308 121.301,146.251 137.200 L 146.200 151.400 131.400 151.621 C 119.471 151.799,116.031 151.974,113.665 152.523 C 93.704 157.152,79.194 172.123,75.429 191.974 C 74.518 196.776,74.479 279.655,75.385 284.851 C 78.865 304.804,95.196 321.135,115.149 324.615 C 120.188 325.494,279.812 325.494,284.851 324.615 C 304.804 321.135,321.135 304.804,324.615 284.851 C 325.521 279.655,325.482 196.776,324.571 191.974 C 320.806 172.123,306.296 157.152,286.335 152.523 C 283.969 151.974,280.529 151.799,268.600 151.621 L 253.800 151.400 253.567 135.400 C 253.313 117.978,253.247 117.419,250.578 110.000 C 241.851 85.736,215.873 70.812,190.400 75.430 M207.024 100.406 C 217.419 103.065,225.336 110.985,227.997 121.387 C 228.723 124.228,228.800 125.819,228.800 138.064 L 228.800 151.600 200.000 151.600 L 171.200 151.600 171.200 138.064 C 171.200 122.834,171.450 120.961,174.218 115.423 C 180.202 103.450,194.083 97.096,207.024 100.406 M205.511 198.819 C 211.679 201.901,212.174 203.375,212.321 219.107 L 212.441 232.014 215.006 233.633 C 238.030 248.175,227.313 284.510,200.000 284.510 C 172.686 284.510,161.984 248.165,185.016 233.620 L 187.559 232.014 187.679 219.107 C 187.796 206.595,187.828 206.148,188.702 204.511 C 191.128 199.973,195.006 197.600,200.000 197.600 C 202.624 197.600,203.428 197.778,205.511 198.819 " stroke="none" fill="#ac2cb4" fill-rule="evenodd"></path><path id="path1" d="M0.000 200.000 L 0.000 400.000 200.000 400.000 L 400.000 400.000 400.000 200.000 L 400.000 0.000 200.000 0.000 L 0.000 0.000 0.000 200.000 M211.600 75.542 C 230.547 79.949,245.312 93.362,251.366 111.664 C 253.702 118.727,254.000 121.621,254.000 137.270 L 254.000 151.200 266.700 151.202 C 283.764 151.206,288.642 151.972,297.037 155.969 C 311.019 162.625,320.030 173.582,324.340 189.166 L 325.400 193.000 325.400 238.200 L 325.400 283.400 324.321 287.645 C 319.673 305.931,305.931 319.673,287.645 324.321 L 283.400 325.400 200.000 325.400 L 116.600 325.400 112.355 324.321 C 94.069 319.673,80.327 305.931,75.679 287.645 L 74.600 283.400 74.600 238.200 L 74.600 193.000 75.660 189.166 C 79.970 173.582,88.981 162.625,102.963 155.969 C 111.358 151.972,116.236 151.206,133.300 151.202 L 146.000 151.200 146.000 137.270 C 146.000 121.621,146.298 118.727,148.634 111.664 C 155.269 91.603,171.826 77.913,193.400 74.649 C 196.446 74.188,208.275 74.769,211.600 75.542 M196.400 99.973 C 186.629 101.331,178.347 107.372,174.155 116.200 C 171.601 121.577,171.488 122.424,171.300 137.500 L 171.129 151.200 200.000 151.200 L 228.871 151.200 228.700 137.500 C 228.512 122.424,228.399 121.577,225.845 116.200 C 220.576 105.105,208.271 98.324,196.400 99.973 M196.780 198.121 C 193.169 199.142,190.294 201.638,188.674 205.159 C 187.879 206.887,187.818 207.778,187.684 219.661 L 187.541 232.323 185.237 233.745 C 162.417 247.830,172.708 283.948,199.600 284.151 C 227.334 284.359,238.097 247.312,214.330 233.450 L 212.459 232.359 212.330 219.679 C 212.207 207.722,212.151 206.895,211.345 205.151 C 208.782 199.607,202.407 196.530,196.780 198.121 " stroke="none" fill="#fcfcfc" fill-rule="evenodd"></path><path id="path2" d="M198.300 74.693 C 199.235 74.777,200.765 74.777,201.700 74.693 C 202.635 74.609,201.870 74.540,200.000 74.540 C 198.130 74.540,197.365 74.609,198.300 74.693 M179.381 108.100 L 177.800 109.800 179.500 108.219 C 181.081 106.748,181.384 106.400,181.081 106.400 C 181.016 106.400,180.251 107.165,179.381 108.100 M220.200 108.000 C 221.059 108.880,221.852 109.600,221.962 109.600 C 222.072 109.600,221.459 108.880,220.600 108.000 C 219.741 107.120,218.948 106.400,218.838 106.400 C 218.728 106.400,219.341 107.120,220.200 108.000 M253.779 138.000 C 253.779 145.370,253.833 148.385,253.899 144.700 C 253.965 141.015,253.965 134.985,253.899 131.300 C 253.833 127.615,253.779 130.630,253.779 138.000 M146.175 140.600 C 146.175 146.540,146.231 149.026,146.299 146.124 C 146.367 143.222,146.367 138.362,146.299 135.324 C 146.231 132.286,146.175 134.660,146.175 140.600 M74.593 238.400 C 74.593 260.950,74.641 270.175,74.700 258.900 C 74.759 247.625,74.759 229.175,74.700 217.900 C 74.641 206.625,74.593 215.850,74.593 238.400 M325.393 238.400 C 325.393 260.950,325.441 270.175,325.500 258.900 C 325.559 247.625,325.559 229.175,325.500 217.900 C 325.441 206.625,325.393 215.850,325.393 238.400 M190.975 201.300 L 189.800 202.600 191.100 201.425 C 192.312 200.330,192.584 200.000,192.275 200.000 C 192.206 200.000,191.621 200.585,190.975 201.300 M207.600 200.125 C 207.600 200.194,208.185 200.779,208.900 201.425 L 210.200 202.600 209.025 201.300 C 207.930 200.088,207.600 199.816,207.600 200.125 M219.375 276.500 L 218.200 277.800 219.500 276.625 C 220.215 275.979,220.800 275.394,220.800 275.325 C 220.800 275.016,220.470 275.288,219.375 276.500 M199.300 284.676 C 199.685 284.776,200.315 284.776,200.700 284.676 C 201.085 284.575,200.770 284.493,200.000 284.493 C 199.230 284.493,198.915 284.575,199.300 284.676 M88.800 311.000 C 89.995 312.210,91.063 313.200,91.173 313.200 C 91.283 313.200,90.395 312.210,89.200 311.000 C 88.005 309.790,86.937 308.800,86.827 308.800 C 86.717 308.800,87.605 309.790,88.800 311.000 M310.786 311.100 L 308.600 313.400 310.900 311.214 C 313.037 309.182,313.383 308.800,313.086 308.800 C 313.024 308.800,311.989 309.835,310.786 311.100 M160.300 325.500 C 182.135 325.557,217.865 325.557,239.700 325.500 C 261.535 325.443,243.670 325.396,200.000 325.396 C 156.330 325.396,138.465 325.443,160.300 325.500 " stroke="none" fill="#c66cc9" fill-rule="evenodd"></path><path id="path3" d="M127.125 151.499 C 130.714 151.566,136.474 151.566,139.925 151.499 C 143.376 151.433,140.440 151.378,133.400 151.378 C 126.360 151.379,123.536 151.433,127.125 151.499 M185.500 151.500 C 193.475 151.560,206.525 151.560,214.500 151.500 C 222.475 151.439,215.950 151.390,200.000 151.390 C 184.050 151.390,177.525 151.439,185.500 151.500 M260.325 151.499 C 263.914 151.566,269.674 151.566,273.125 151.499 C 276.576 151.433,273.640 151.378,266.600 151.378 C 259.560 151.379,256.736 151.433,260.325 151.499 " stroke="none" fill="#d99fde" fill-rule="evenodd"></path><path id="path4" d="" stroke="none" fill="#ecccec" fill-rule="evenodd"></path></g></svg>