<svg id="svg" version="1.1" xmlns="http://www.w3.org/2000/svg" xmlns:xlink="http://www.w3.org/1999/xlink" width="400" height="400" viewBox="0, 0, 400,400"><g id="svgg"><path id="path0" d="M192.000 75.054 C 161.160 77.721,137.454 87.477,119.261 104.987 C 112.427 111.564,102.011 125.034,103.039 125.965 C 103.237 126.145,113.570 131.739,126.000 138.397 C 138.430 145.055,149.873 151.198,151.430 152.049 L 154.259 153.595 156.626 150.097 C 165.742 136.628,180.777 128.736,197.400 128.695 C 215.470 128.651,227.428 136.746,228.283 149.600 C 228.887 158.682,225.000 164.682,208.000 180.912 C 186.282 201.645,179.910 212.249,178.926 229.300 L 178.678 233.600 209.539 233.600 L 240.400 233.600 240.407 232.100 C 240.449 222.980,245.466 215.957,263.200 200.194 C 289.903 176.459,297.030 163.675,296.983 139.600 C 296.914 104.311,272.128 81.905,226.365 75.760 C 221.633 75.124,197.029 74.619,192.000 75.054 M204.542 253.636 C 197.590 254.257,191.881 256.096,186.506 259.446 C 163.034 274.075,165.803 309.770,191.329 321.616 C 199.043 325.196,212.890 326.332,221.182 324.066 C 258.012 313.998,258.402 264.192,221.725 254.831 C 219.034 254.145,210.112 253.077,208.600 253.261 C 208.380 253.288,206.554 253.457,204.542 253.636 " stroke="none" fill="#ac2cb4" fill-rule="evenodd"></path><path id="path1" d="M0.000 200.000 L 0.000 400.000 200.000 400.000 L 400.000 400.000 400.000 200.000 L 400.000 0.000 200.000 0.000 L 0.000 0.000 0.000 200.000 M225.200 75.338 C 273.071 81.505,299.190 105.959,297.472 143.000 C 296.454 164.947,288.020 178.895,262.000 201.661 C 246.660 215.082,241.492 222.240,240.899 230.886 L 240.686 234.000 209.488 234.000 L 178.291 234.000 178.569 229.700 C 179.765 211.192,184.864 203.097,212.148 176.396 C 224.956 163.862,228.008 158.935,227.995 150.816 C 227.974 137.437,216.216 129.009,197.600 129.029 C 180.612 129.047,165.794 136.772,156.796 150.301 C 155.287 152.569,154.397 153.555,153.951 153.452 C 153.273 153.295,103.225 126.524,102.700 126.037 C 101.874 125.273,110.735 113.268,116.567 107.251 C 135.244 87.979,160.573 77.232,193.400 74.652 C 198.121 74.281,220.793 74.770,225.200 75.338 M221.648 254.515 C 260.630 264.768,257.570 318.079,217.600 325.029 C 185.094 330.680,159.990 300.858,173.804 273.000 C 181.533 257.413,202.243 249.412,221.648 254.515 " stroke="none" fill="#fcfcfc" fill-rule="evenodd"></path><path id="path2" d="M202.719 74.698 C 204.544 74.772,207.424 74.772,209.119 74.697 C 210.814 74.622,209.320 74.561,205.800 74.562 C 202.280 74.562,200.894 74.624,202.719 74.698 M117.586 106.300 L 115.400 108.600 117.700 106.414 C 119.837 104.382,120.183 104.000,119.886 104.000 C 119.824 104.000,118.789 105.035,117.586 106.300 M196.500 128.687 C 197.105 128.778,198.095 128.778,198.700 128.687 C 199.305 128.595,198.810 128.520,197.600 128.520 C 196.390 128.520,195.895 128.595,196.500 128.687 M162.386 143.100 L 160.200 145.400 162.500 143.214 C 164.637 141.182,164.983 140.800,164.686 140.800 C 164.624 140.800,163.589 141.835,162.386 143.100 M206.400 182.200 C 205.428 183.190,204.723 184.000,204.833 184.000 C 204.943 184.000,205.828 183.190,206.800 182.200 C 207.772 181.210,208.477 180.400,208.367 180.400 C 208.257 180.400,207.372 181.210,206.400 182.200 M275.393 188.900 L 271.000 193.400 275.500 189.007 C 279.680 184.926,280.182 184.400,279.893 184.400 C 279.834 184.400,277.809 186.425,275.393 188.900 M198.181 190.500 L 196.600 192.200 198.300 190.619 C 199.881 189.148,200.184 188.800,199.881 188.800 C 199.816 188.800,199.051 189.565,198.181 190.500 M256.575 206.100 L 255.400 207.400 256.700 206.225 C 257.415 205.579,258.000 204.994,258.000 204.925 C 258.000 204.616,257.670 204.888,256.575 206.100 M194.100 233.900 C 202.625 233.960,216.575 233.960,225.100 233.900 C 233.625 233.840,226.650 233.790,209.600 233.790 C 192.550 233.790,185.575 233.840,194.100 233.900 M206.100 253.476 C 206.485 253.576,207.115 253.576,207.500 253.476 C 207.885 253.375,207.570 253.293,206.800 253.293 C 206.030 253.293,205.715 253.375,206.100 253.476 M211.300 253.476 C 211.685 253.576,212.315 253.576,212.700 253.476 C 213.085 253.375,212.770 253.293,212.000 253.293 C 211.230 253.293,210.915 253.375,211.300 253.476 M207.900 325.493 C 208.835 325.577,210.365 325.577,211.300 325.493 C 212.235 325.409,211.470 325.340,209.600 325.340 C 207.730 325.340,206.965 325.409,207.900 325.493 " stroke="none" fill="#c76fca" fill-rule="evenodd"></path><path id="path3" d="M197.700 74.676 C 198.085 74.776,198.715 74.776,199.100 74.676 C 199.485 74.575,199.170 74.493,198.400 74.493 C 197.630 74.493,197.315 74.575,197.700 74.676 M212.500 74.676 C 212.885 74.776,213.515 74.776,213.900 74.676 C 214.285 74.575,213.970 74.493,213.200 74.493 C 212.430 74.493,212.115 74.575,212.500 74.676 M297.342 139.800 C 297.341 141.780,297.408 142.640,297.492 141.712 C 297.576 140.784,297.577 139.164,297.495 138.112 C 297.412 137.060,297.343 137.820,297.342 139.800 M228.114 151.000 C 228.117 152.100,228.195 152.503,228.287 151.895 C 228.379 151.286,228.377 150.386,228.282 149.895 C 228.187 149.403,228.111 149.900,228.114 151.000 M252.589 210.100 L 249.800 213.000 252.700 210.211 C 255.394 207.620,255.783 207.200,255.489 207.200 C 255.428 207.200,254.123 208.505,252.589 210.100 M178.509 232.400 C 178.509 233.390,178.587 233.795,178.682 233.300 C 178.778 232.805,178.778 231.995,178.682 231.500 C 178.587 231.005,178.509 231.410,178.509 232.400 M180.400 314.200 C 181.146 314.970,181.847 315.600,181.957 315.600 C 182.067 315.600,181.546 314.970,180.800 314.200 C 180.054 313.430,179.353 312.800,179.243 312.800 C 179.133 312.800,179.654 313.430,180.400 314.200 " stroke="none" fill="#daa3e0" fill-rule="evenodd"></path><path id="path4" d="M281.200 99.000 C 281.946 99.770,282.647 100.400,282.757 100.400 C 282.867 100.400,282.346 99.770,281.600 99.000 C 280.854 98.230,280.153 97.600,280.043 97.600 C 279.933 97.600,280.454 98.230,281.200 99.000 M215.978 172.700 L 214.600 174.200 216.100 172.822 C 217.496 171.538,217.784 171.200,217.478 171.200 C 217.412 171.200,216.737 171.875,215.978 172.700 M211.381 177.300 L 209.800 179.000 211.500 177.419 C 213.081 175.948,213.384 175.600,213.081 175.600 C 213.016 175.600,212.251 176.365,211.381 177.300 M202.187 186.100 L 199.800 188.600 202.300 186.213 C 204.622 183.995,204.983 183.600,204.687 183.600 C 204.626 183.600,203.501 184.725,202.187 186.100 M170.131 289.000 C 170.133 290.540,170.205 291.121,170.292 290.291 C 170.379 289.461,170.377 288.201,170.289 287.491 C 170.200 286.781,170.129 287.460,170.131 289.000 " stroke="none" fill="#ecccec" fill-rule="evenodd"></path></g></svg>