<svg id="svg" version="1.1" xmlns="http://www.w3.org/2000/svg" xmlns:xlink="http://www.w3.org/1999/xlink" width="400" height="400" viewBox="0, 0, 400,400"><g id="svgg"><path id="path0" d="M190.600 75.221 C 143.727 82.474,120.178 135.512,146.298 175.000 C 165.835 204.537,206.050 212.581,235.800 192.902 C 276.999 165.651,272.961 103.107,228.600 81.381 C 217.230 75.813,202.359 73.402,190.600 75.221 M169.200 223.255 C 129.709 227.302,99.952 261.463,101.301 301.200 C 101.711 313.264,108.060 321.838,118.621 324.589 C 122.181 325.516,277.819 325.516,281.379 324.589 C 291.882 321.853,298.231 313.326,298.698 301.330 C 300.251 261.355,270.232 227.190,230.058 223.210 C 225.049 222.714,174.112 222.751,169.200 223.255 " stroke="none" fill="#ac2cb4" fill-rule="evenodd"></path><path id="path1" d="M0.000 200.000 L 0.000 400.000 200.000 400.000 L 400.000 400.000 400.000 200.000 L 400.000 0.000 200.000 0.000 L 0.000 0.000 0.000 200.000 M208.200 74.839 C 252.008 80.153,277.634 127.876,258.151 167.862 C 234.826 215.731,165.174 215.731,141.849 167.862 C 119.226 121.432,156.898 68.616,208.200 74.839 M234.287 223.356 C 266.352 228.645,291.167 252.286,297.575 283.650 C 302.080 305.701,297.157 319.301,282.800 324.465 L 280.200 325.400 200.000 325.400 L 119.800 325.400 117.200 324.465 C 102.843 319.301,97.920 305.701,102.425 283.650 C 109.239 250.299,137.402 225.372,171.173 222.803 C 179.590 222.162,229.713 222.602,234.287 223.356 " stroke="none" fill="#fcfcfc" fill-rule="evenodd"></path><path id="path2" d="M198.100 74.694 C 199.145 74.776,200.855 74.776,201.900 74.694 C 202.945 74.612,202.090 74.544,200.000 74.544 C 197.910 74.544,197.055 74.612,198.100 74.694 M135.340 139.200 C 135.340 141.070,135.409 141.835,135.493 140.900 C 135.577 139.965,135.577 138.435,135.493 137.500 C 135.409 136.565,135.340 137.330,135.340 139.200 M264.540 139.200 C 264.540 141.070,264.609 141.835,264.693 140.900 C 264.777 139.965,264.777 138.435,264.693 137.500 C 264.609 136.565,264.540 137.330,264.540 139.200 M198.500 203.891 C 199.325 203.978,200.675 203.978,201.500 203.891 C 202.325 203.805,201.650 203.734,200.000 203.734 C 198.350 203.734,197.675 203.805,198.500 203.891 M123.200 245.000 C 121.561 246.650,120.310 248.000,120.420 248.000 C 120.530 248.000,121.961 246.650,123.600 245.000 C 125.239 243.350,126.490 242.000,126.380 242.000 C 126.270 242.000,124.839 243.350,123.200 245.000 M273.600 242.110 C 273.600 242.171,274.995 243.566,276.700 245.210 L 279.800 248.200 276.810 245.100 C 274.033 242.221,273.600 241.817,273.600 242.110 M161.100 325.500 C 182.495 325.557,217.505 325.557,238.900 325.500 C 260.295 325.443,242.790 325.396,200.000 325.396 C 157.210 325.396,139.705 325.443,161.100 325.500 " stroke="none" fill="#c66ac7" fill-rule="evenodd"></path><path id="path3" d="M154.000 93.400 C 153.028 94.390,152.323 95.200,152.433 95.200 C 152.543 95.200,153.428 94.390,154.400 93.400 C 155.372 92.410,156.077 91.600,155.967 91.600 C 155.857 91.600,154.972 92.410,154.000 93.400 M245.583 93.300 C 246.564 94.345,247.419 95.200,247.483 95.200 C 247.784 95.200,247.466 94.841,245.700 93.183 L 243.800 91.400 245.583 93.300 M154.000 185.000 C 154.746 185.770,155.447 186.400,155.557 186.400 C 155.667 186.400,155.146 185.770,154.400 185.000 C 153.654 184.230,152.953 183.600,152.843 183.600 C 152.733 183.600,153.254 184.230,154.000 185.000 M245.578 185.100 L 244.200 186.600 245.700 185.222 C 247.096 183.938,247.384 183.600,247.078 183.600 C 247.012 183.600,246.337 184.275,245.578 185.100 " stroke="none" fill="#dba4e1" fill-rule="evenodd"></path><path id="path4" d="M187.500 222.700 C 194.375 222.761,205.625 222.761,212.500 222.700 C 219.375 222.638,213.750 222.588,200.000 222.588 C 186.250 222.588,180.625 222.638,187.500 222.700 M100.953 299.400 C 100.953 302.040,101.018 303.068,101.097 301.684 C 101.175 300.301,101.174 298.141,101.095 296.884 C 101.016 295.628,100.952 296.760,100.953 299.400 M298.953 299.400 C 298.953 302.040,299.018 303.068,299.097 301.684 C 299.175 300.301,299.174 298.141,299.095 296.884 C 299.016 295.628,298.952 296.760,298.953 299.400 " stroke="none" fill="#ecccec" fill-rule="evenodd"></path></g></svg>